<svg xmlns="http://www.w3.org/2000/svg" xmlns:xlink="http://www.w3.org/1999/xlink" width="1890" zoomAndPan="magnify" viewBox="0 0 1417.5 283.499996" height="378" preserveAspectRatio="xMidYMid meet" version="1.0"><defs><g/></defs><g fill="#343434" fill-opacity="1"><g transform="translate(16.003995, 193.76946)"><g><path d="M 154.984375 -155.171875 L 142.171875 -136.9375 C 134.421875 -142.757812 127.3125 -146.476562 120.84375 -148.09375 C 114.375 -149.707031 108.101562 -150.515625 102.03125 -150.515625 L 99.5 -150.515625 L 99.5 -43.25 C 99.5 -36.65625 99.5625 -31 99.6875 -26.28125 C 99.820312 -21.5625 100.082031 -17.164062 100.46875 -13.09375 C 100.863281 -9.019531 101.316406 -4.65625 101.828125 0 L 57.03125 0 C 57.675781 -4.65625 58.160156 -9.019531 58.484375 -13.09375 C 58.804688 -17.164062 59.03125 -21.5625 59.15625 -26.28125 C 59.289062 -31 59.359375 -36.65625 59.359375 -43.25 L 59.359375 -150.515625 L 56.828125 -150.515625 C 50.753906 -150.515625 44.515625 -149.707031 38.109375 -148.09375 C 31.710938 -146.476562 24.570312 -142.757812 16.6875 -136.9375 L 3.875 -155.171875 Z M 154.984375 -155.171875 "/></g></g></g><g fill="#343434" fill-opacity="1"><g transform="translate(174.843774, 193.76946)"><g><path d="M 84.578125 0 C 85.347656 -6.46875 85.894531 -11.898438 86.21875 -16.296875 C 86.539062 -20.691406 86.734375 -24.859375 86.796875 -28.796875 C 86.859375 -32.742188 86.890625 -37.109375 86.890625 -41.890625 L 86.890625 -71.765625 C 86.890625 -77.453125 85.953125 -81.878906 84.078125 -85.046875 C 82.203125 -88.222656 79.132812 -89.8125 74.875 -89.8125 C 69.570312 -89.8125 64.65625 -87.675781 60.125 -83.40625 C 55.601562 -79.132812 51.46875 -73.316406 47.71875 -65.953125 L 47.71875 -43.25 C 47.71875 -38.46875 47.75 -33.910156 47.8125 -29.578125 C 47.875 -25.242188 48.066406 -20.75 48.390625 -16.09375 C 48.710938 -11.4375 49.265625 -6.070312 50.046875 0 L 10.859375 0 C 11.640625 -6.070312 12.191406 -11.4375 12.515625 -16.09375 C 12.835938 -20.75 13.03125 -25.242188 13.09375 -29.578125 C 13.15625 -33.910156 13.1875 -38.46875 13.1875 -43.25 L 13.1875 -111.921875 C 13.1875 -116.835938 13.15625 -121.425781 13.09375 -125.6875 C 13.03125 -129.957031 12.835938 -134.421875 12.515625 -139.078125 C 12.191406 -143.734375 11.640625 -149.097656 10.859375 -155.171875 L 50.046875 -155.171875 C 49.265625 -149.097656 48.710938 -143.734375 48.390625 -139.078125 C 48.066406 -134.421875 47.875 -129.957031 47.8125 -125.6875 C 47.75 -121.425781 47.71875 -116.835938 47.71875 -111.921875 L 47.71875 -73.515625 C 51.851562 -80.492188 57.085938 -86.441406 63.421875 -91.359375 C 69.765625 -96.273438 78.171875 -98.734375 88.640625 -98.734375 C 98.722656 -98.734375 106.738281 -95.789062 112.6875 -89.90625 C 118.644531 -84.019531 121.625 -73.769531 121.625 -59.15625 L 121.625 -41.890625 C 121.625 -37.109375 121.65625 -32.742188 121.71875 -28.796875 C 121.78125 -24.859375 121.972656 -20.691406 122.296875 -16.296875 C 122.617188 -11.898438 123.171875 -6.46875 123.953125 0 Z M 84.578125 0 "/></g></g></g><g fill="#343434" fill-opacity="1"><g transform="translate(309.634543, 193.76946)"><g><path d="M 121.234375 0 L 86.125 0 C 84.832031 -6.332031 84.117188 -12.472656 83.984375 -18.421875 C 81.273438 -11.703125 76.816406 -6.304688 70.609375 -2.234375 C 64.398438 1.835938 55.925781 3.875 45.1875 3.875 C 39.882812 3.875 34.519531 3.066406 29.09375 1.453125 C 23.664062 -0.160156 19.171875 -2.90625 15.609375 -6.78125 C 12.054688 -10.664062 10.28125 -15.90625 10.28125 -22.5 C 10.28125 -28.832031 11.957031 -34.066406 15.3125 -38.203125 C 18.675781 -42.347656 22.945312 -45.648438 28.125 -48.109375 C 33.300781 -50.566406 38.703125 -52.472656 44.328125 -53.828125 C 49.953125 -55.179688 54.960938 -56.25 59.359375 -57.03125 C 68.015625 -58.582031 74.25 -60.742188 78.0625 -63.515625 C 81.882812 -66.296875 83.796875 -70.859375 83.796875 -77.203125 C 83.796875 -88.316406 78.945312 -93.875 69.25 -93.875 C 64.070312 -93.875 59.960938 -92.804688 56.921875 -90.671875 C 53.890625 -88.546875 51.398438 -85.992188 49.453125 -83.015625 C 47.515625 -80.046875 45.578125 -77.203125 43.640625 -74.484375 C 40.671875 -70.472656 37.082031 -68.078125 32.875 -67.296875 C 28.675781 -66.523438 24.796875 -67.332031 21.234375 -69.71875 C 17.679688 -72.113281 15.390625 -76.03125 14.359375 -81.46875 C 21.210938 -85.988281 29.84375 -89.992188 40.25 -93.484375 C 50.65625 -96.984375 61.9375 -98.734375 74.09375 -98.734375 C 82.625 -98.734375 90.21875 -97.757812 96.875 -95.8125 C 103.539062 -93.875 108.78125 -90.609375 112.59375 -86.015625 C 116.414062 -81.429688 118.328125 -75.128906 118.328125 -67.109375 L 118.328125 -41.890625 C 118.328125 -36.847656 118.359375 -32.289062 118.421875 -28.21875 C 118.484375 -24.144531 118.738281 -19.910156 119.1875 -15.515625 C 119.644531 -11.117188 120.328125 -5.945312 121.234375 0 Z M 62.453125 -7.765625 C 69.046875 -7.765625 74.25 -10.578125 78.0625 -16.203125 C 81.882812 -21.828125 83.796875 -28.644531 83.796875 -36.65625 L 83.796875 -62.453125 C 82.109375 -60.390625 79.84375 -58.773438 77 -57.609375 C 74.15625 -56.441406 70.726562 -55.148438 66.71875 -53.734375 C 54.175781 -49.203125 47.90625 -40.726562 47.90625 -28.3125 C 47.90625 -21.070312 49.226562 -15.835938 51.875 -12.609375 C 54.53125 -9.378906 58.054688 -7.765625 62.453125 -7.765625 Z M 62.453125 -7.765625 "/></g></g></g><g fill="#343434" fill-opacity="1"><g transform="translate(441.128322, 193.76946)"><g><path d="M 84.578125 0 C 85.347656 -6.46875 85.894531 -11.898438 86.21875 -16.296875 C 86.539062 -20.691406 86.734375 -24.859375 86.796875 -28.796875 C 86.859375 -32.742188 86.890625 -37.109375 86.890625 -41.890625 L 86.890625 -71.765625 C 86.890625 -77.453125 85.953125 -81.878906 84.078125 -85.046875 C 82.203125 -88.222656 79.132812 -89.8125 74.875 -89.8125 C 69.570312 -89.8125 64.65625 -87.675781 60.125 -83.40625 C 55.601562 -79.132812 51.46875 -73.378906 47.71875 -66.140625 L 47.71875 -41.3125 C 47.71875 -36.53125 47.75 -32.132812 47.8125 -28.125 C 47.875 -24.113281 48.066406 -19.910156 48.390625 -15.515625 C 48.710938 -11.117188 49.265625 -5.945312 50.046875 0 L 10.859375 0 C 11.640625 -5.945312 12.191406 -11.117188 12.515625 -15.515625 C 12.835938 -19.910156 13.03125 -24.113281 13.09375 -28.125 C 13.15625 -32.132812 13.1875 -36.53125 13.1875 -41.3125 L 13.1875 -53.53125 C 13.1875 -58.320312 13.15625 -62.71875 13.09375 -66.71875 C 13.03125 -70.726562 12.835938 -74.929688 12.515625 -79.328125 C 12.191406 -83.722656 11.640625 -88.894531 10.859375 -94.84375 L 50.046875 -94.84375 C 48.878906 -86.957031 48.234375 -80.039062 48.109375 -74.09375 C 52.242188 -80.945312 57.476562 -86.765625 63.8125 -91.546875 C 70.144531 -96.335938 78.421875 -98.734375 88.640625 -98.734375 C 98.722656 -98.734375 106.738281 -95.789062 112.6875 -89.90625 C 118.644531 -84.019531 121.625 -73.769531 121.625 -59.15625 L 121.625 -41.890625 C 121.625 -37.109375 121.65625 -32.742188 121.71875 -28.796875 C 121.78125 -24.859375 121.972656 -20.691406 122.296875 -16.296875 C 122.617188 -11.898438 123.171875 -6.46875 123.953125 0 Z M 84.578125 0 "/></g></g></g><g fill="#343434" fill-opacity="1"><g transform="translate(575.919091, 193.76946)"><g><path d="M 127.4375 -15.515625 C 135.707031 -15.515625 142.625 -13.671875 148.1875 -9.984375 C 153.75 -6.304688 156.53125 -0.457031 156.53125 7.5625 C 156.53125 14.03125 154.492188 19.6875 150.421875 24.53125 C 146.347656 29.382812 140.882812 33.457031 134.03125 36.75 C 127.175781 40.050781 119.515625 42.703125 111.046875 44.703125 C 102.578125 46.710938 93.976562 48.171875 85.25 49.078125 C 76.519531 49.984375 68.273438 50.4375 60.515625 50.4375 C 54.441406 50.4375 48.332031 50.078125 42.1875 49.359375 C 36.039062 48.648438 30.414062 47.421875 25.3125 45.671875 C 20.207031 43.929688 16.101562 41.570312 13 38.59375 C 9.894531 35.625 8.34375 31.941406 8.34375 27.546875 C 8.34375 23.921875 9.40625 20.78125 11.53125 18.125 C 13.664062 15.476562 16.609375 13.1875 20.359375 11.25 C 17.003906 9.4375 14.160156 7.109375 11.828125 4.265625 C 9.503906 1.421875 8.34375 -2.066406 8.34375 -6.203125 C 8.34375 -16.421875 17.070312 -24.3125 34.53125 -29.875 C 29.351562 -33.238281 25.242188 -37.34375 22.203125 -42.1875 C 19.171875 -47.039062 17.65625 -52.632812 17.65625 -58.96875 C 17.65625 -67.882812 20.398438 -75.285156 25.890625 -81.171875 C 31.390625 -87.054688 38.664062 -91.453125 47.71875 -94.359375 C 56.769531 -97.273438 66.53125 -98.734375 77 -98.734375 C 83.34375 -98.734375 89.488281 -98.210938 95.4375 -97.171875 C 101.382812 -96.140625 106.8125 -94.523438 111.71875 -92.328125 C 115.082031 -96.859375 118.609375 -101 122.296875 -104.75 C 125.984375 -108.5 130.476562 -111.210938 135.78125 -112.890625 C 141.082031 -114.566406 147.804688 -114.566406 155.953125 -112.890625 C 157.367188 -105.515625 156.234375 -99.984375 152.546875 -96.296875 C 148.867188 -92.617188 143.535156 -91.878906 136.546875 -94.078125 C 133.703125 -94.722656 131.210938 -95.300781 129.078125 -95.8125 C 126.953125 -96.332031 124.820312 -96.300781 122.6875 -95.71875 C 120.550781 -95.132812 118.125 -93.421875 115.40625 -90.578125 C 121.75 -87.347656 126.828125 -83.082031 130.640625 -77.78125 C 134.453125 -72.476562 136.359375 -66.207031 136.359375 -58.96875 C 136.359375 -50.039062 133.578125 -42.664062 128.015625 -36.84375 C 122.453125 -31.03125 115.175781 -26.664062 106.1875 -23.75 C 97.207031 -20.84375 87.476562 -19.390625 77 -19.390625 C 64.070312 -19.390625 52.566406 -21.460938 42.484375 -25.609375 C 37.566406 -23.015625 34.140625 -20.519531 32.203125 -18.125 C 30.265625 -15.738281 29.296875 -13.0625 29.296875 -10.09375 C 29.296875 -6.851562 30.648438 -4.101562 33.359375 -1.84375 C 36.078125 0.414062 40.019531 1.546875 45.1875 1.546875 C 53.988281 1.546875 61.976562 0.675781 69.15625 -1.0625 C 76.332031 -2.8125 83.054688 -4.785156 89.328125 -6.984375 C 95.597656 -9.179688 101.800781 -11.148438 107.9375 -12.890625 C 114.082031 -14.640625 120.582031 -15.515625 127.4375 -15.515625 Z M 77 -93.875 C 69.894531 -93.875 64.5 -90.832031 60.8125 -84.75 C 57.125 -78.675781 55.28125 -70.082031 55.28125 -58.96875 C 55.28125 -47.976562 57.125 -39.410156 60.8125 -33.265625 C 64.5 -27.117188 69.894531 -24.046875 77 -24.046875 C 84.25 -24.046875 89.679688 -27.117188 93.296875 -33.265625 C 96.921875 -39.410156 98.734375 -47.976562 98.734375 -58.96875 C 98.734375 -70.082031 96.921875 -78.675781 93.296875 -84.75 C 89.679688 -90.832031 84.25 -93.875 77 -93.875 Z M 56.4375 41.3125 C 63.8125 41.3125 71.539062 40.597656 79.625 39.171875 C 87.707031 37.753906 95.238281 35.625 102.21875 32.78125 C 109.207031 29.9375 114.898438 26.476562 119.296875 22.40625 C 123.691406 18.332031 125.890625 13.578125 125.890625 8.140625 C 125.890625 4.523438 124.722656 1.617188 122.390625 -0.578125 C 120.066406 -2.773438 116.382812 -3.875 111.34375 -3.875 C 106.164062 -3.875 100.859375 -2.90625 95.421875 -0.96875 C 89.992188 0.96875 84.335938 3.164062 78.453125 5.625 C 72.578125 8.082031 66.375 10.28125 59.84375 12.21875 C 53.3125 14.15625 46.359375 15.125 38.984375 15.125 C 34.460938 15.125 30.128906 14.546875 25.984375 13.390625 C 22.753906 15.191406 20.492188 17.128906 19.203125 19.203125 C 17.910156 21.273438 17.265625 23.472656 17.265625 25.796875 C 17.265625 29.546875 19.140625 32.550781 22.890625 34.8125 C 26.640625 37.082031 31.519531 38.734375 37.53125 39.765625 C 43.539062 40.796875 49.84375 41.3125 56.4375 41.3125 Z M 56.4375 41.3125 "/></g></g></g><g fill="#343434" fill-opacity="1"><g transform="translate(741.546889, 193.76946)"><g/></g></g><g fill="#343434" fill-opacity="1"><g transform="translate(798.566332, 193.76946)"><g><path d="M 13.578125 0 C 14.222656 -4.65625 14.707031 -9.019531 15.03125 -13.09375 C 15.351562 -17.164062 15.578125 -21.5625 15.703125 -26.28125 C 15.835938 -31 15.90625 -36.65625 15.90625 -43.25 L 15.90625 -111.921875 C 15.90625 -118.640625 15.835938 -124.328125 15.703125 -128.984375 C 15.578125 -133.640625 15.351562 -138.003906 15.03125 -142.078125 C 14.707031 -146.148438 14.222656 -150.515625 13.578125 -155.171875 L 67.890625 -155.171875 C 77.585938 -155.171875 86.832031 -154.617188 95.625 -153.515625 C 104.414062 -152.421875 112.238281 -150.421875 119.09375 -147.515625 C 125.945312 -144.609375 131.34375 -140.40625 135.28125 -134.90625 C 139.226562 -129.40625 141.203125 -122.257812 141.203125 -113.46875 C 141.203125 -104.675781 139.226562 -97.53125 135.28125 -92.03125 C 131.34375 -86.539062 125.945312 -82.335938 119.09375 -79.421875 C 112.238281 -76.515625 104.414062 -74.507812 95.625 -73.40625 C 86.832031 -72.3125 77.585938 -71.765625 67.890625 -71.765625 L 56.0625 -71.765625 L 56.0625 -43.25 C 56.0625 -36.65625 56.125 -31 56.25 -26.28125 C 56.375 -21.5625 56.628906 -17.164062 57.015625 -13.09375 C 57.410156 -9.019531 57.867188 -4.65625 58.390625 0 Z M 56.0625 -76.421875 L 67.3125 -76.421875 C 73.519531 -76.421875 79.144531 -77.488281 84.1875 -79.625 C 89.226562 -81.757812 93.265625 -85.476562 96.296875 -90.78125 C 99.335938 -96.082031 100.859375 -103.644531 100.859375 -113.46875 C 100.859375 -123.300781 99.335938 -130.867188 96.296875 -136.171875 C 93.265625 -141.472656 89.226562 -145.1875 84.1875 -147.3125 C 79.144531 -149.445312 73.519531 -150.515625 67.3125 -150.515625 L 56.0625 -150.515625 Z M 56.0625 -76.421875 "/></g></g></g><g fill="#343434" fill-opacity="1"><g transform="translate(949.454432, 193.76946)"><g><path d="M 84.578125 0 C 85.347656 -6.46875 85.894531 -11.898438 86.21875 -16.296875 C 86.539062 -20.691406 86.734375 -24.859375 86.796875 -28.796875 C 86.859375 -32.742188 86.890625 -37.109375 86.890625 -41.890625 L 86.890625 -71.765625 C 86.890625 -77.453125 85.953125 -81.878906 84.078125 -85.046875 C 82.203125 -88.222656 79.132812 -89.8125 74.875 -89.8125 C 69.570312 -89.8125 64.65625 -87.675781 60.125 -83.40625 C 55.601562 -79.132812 51.46875 -73.316406 47.71875 -65.953125 L 47.71875 -43.25 C 47.71875 -38.46875 47.75 -33.910156 47.8125 -29.578125 C 47.875 -25.242188 48.066406 -20.75 48.390625 -16.09375 C 48.710938 -11.4375 49.265625 -6.070312 50.046875 0 L 10.859375 0 C 11.640625 -6.070312 12.191406 -11.4375 12.515625 -16.09375 C 12.835938 -20.75 13.03125 -25.242188 13.09375 -29.578125 C 13.15625 -33.910156 13.1875 -38.46875 13.1875 -43.25 L 13.1875 -111.921875 C 13.1875 -116.835938 13.15625 -121.425781 13.09375 -125.6875 C 13.03125 -129.957031 12.835938 -134.421875 12.515625 -139.078125 C 12.191406 -143.734375 11.640625 -149.097656 10.859375 -155.171875 L 50.046875 -155.171875 C 49.265625 -149.097656 48.710938 -143.734375 48.390625 -139.078125 C 48.066406 -134.421875 47.875 -129.957031 47.8125 -125.6875 C 47.75 -121.425781 47.71875 -116.835938 47.71875 -111.921875 L 47.71875 -73.515625 C 51.851562 -80.492188 57.085938 -86.441406 63.421875 -91.359375 C 69.765625 -96.273438 78.171875 -98.734375 88.640625 -98.734375 C 98.722656 -98.734375 106.738281 -95.789062 112.6875 -89.90625 C 118.644531 -84.019531 121.625 -73.769531 121.625 -59.15625 L 121.625 -41.890625 C 121.625 -37.109375 121.65625 -32.742188 121.71875 -28.796875 C 121.78125 -24.859375 121.972656 -20.691406 122.296875 -16.296875 C 122.617188 -11.898438 123.171875 -6.46875 123.953125 0 Z M 84.578125 0 "/></g></g></g><g fill="#343434" fill-opacity="1"><g transform="translate(1084.245201, 193.76946)"><g><path d="M 121.234375 0 L 86.125 0 C 84.832031 -6.332031 84.117188 -12.472656 83.984375 -18.421875 C 81.273438 -11.703125 76.816406 -6.304688 70.609375 -2.234375 C 64.398438 1.835938 55.925781 3.875 45.1875 3.875 C 39.882812 3.875 34.519531 3.066406 29.09375 1.453125 C 23.664062 -0.160156 19.171875 -2.90625 15.609375 -6.78125 C 12.054688 -10.664062 10.28125 -15.90625 10.28125 -22.5 C 10.28125 -28.832031 11.957031 -34.066406 15.3125 -38.203125 C 18.675781 -42.347656 22.945312 -45.648438 28.125 -48.109375 C 33.300781 -50.566406 38.703125 -52.472656 44.328125 -53.828125 C 49.953125 -55.179688 54.960938 -56.25 59.359375 -57.03125 C 68.015625 -58.582031 74.25 -60.742188 78.0625 -63.515625 C 81.882812 -66.296875 83.796875 -70.859375 83.796875 -77.203125 C 83.796875 -88.316406 78.945312 -93.875 69.25 -93.875 C 64.070312 -93.875 59.960938 -92.804688 56.921875 -90.671875 C 53.890625 -88.546875 51.398438 -85.992188 49.453125 -83.015625 C 47.515625 -80.046875 45.578125 -77.203125 43.640625 -74.484375 C 40.671875 -70.472656 37.082031 -68.078125 32.875 -67.296875 C 28.675781 -66.523438 24.796875 -67.332031 21.234375 -69.71875 C 17.679688 -72.113281 15.390625 -76.03125 14.359375 -81.46875 C 21.210938 -85.988281 29.84375 -89.992188 40.25 -93.484375 C 50.65625 -96.984375 61.9375 -98.734375 74.09375 -98.734375 C 82.625 -98.734375 90.21875 -97.757812 96.875 -95.8125 C 103.539062 -93.875 108.78125 -90.609375 112.59375 -86.015625 C 116.414062 -81.429688 118.328125 -75.128906 118.328125 -67.109375 L 118.328125 -41.890625 C 118.328125 -36.847656 118.359375 -32.289062 118.421875 -28.21875 C 118.484375 -24.144531 118.738281 -19.910156 119.1875 -15.515625 C 119.644531 -11.117188 120.328125 -5.945312 121.234375 0 Z M 62.453125 -7.765625 C 69.046875 -7.765625 74.25 -10.578125 78.0625 -16.203125 C 81.882812 -21.828125 83.796875 -28.644531 83.796875 -36.65625 L 83.796875 -62.453125 C 82.109375 -60.390625 79.84375 -58.773438 77 -57.609375 C 74.15625 -56.441406 70.726562 -55.148438 66.71875 -53.734375 C 54.175781 -49.203125 47.90625 -40.726562 47.90625 -28.3125 C 47.90625 -21.070312 49.226562 -15.835938 51.875 -12.609375 C 54.53125 -9.378906 58.054688 -7.765625 62.453125 -7.765625 Z M 62.453125 -7.765625 "/></g></g></g><g fill="#343434" fill-opacity="1"><g transform="translate(1215.739052, 193.76946)"><g><path d="M 84.578125 0 C 85.347656 -6.46875 85.894531 -11.898438 86.21875 -16.296875 C 86.539062 -20.691406 86.734375 -24.859375 86.796875 -28.796875 C 86.859375 -32.742188 86.890625 -37.109375 86.890625 -41.890625 L 86.890625 -71.765625 C 86.890625 -77.453125 85.953125 -81.878906 84.078125 -85.046875 C 82.203125 -88.222656 79.132812 -89.8125 74.875 -89.8125 C 69.570312 -89.8125 64.65625 -87.675781 60.125 -83.40625 C 55.601562 -79.132812 51.46875 -73.378906 47.71875 -66.140625 L 47.71875 -41.3125 C 47.71875 -36.53125 47.75 -32.132812 47.8125 -28.125 C 47.875 -24.113281 48.066406 -19.910156 48.390625 -15.515625 C 48.710938 -11.117188 49.265625 -5.945312 50.046875 0 L 10.859375 0 C 11.640625 -5.945312 12.191406 -11.117188 12.515625 -15.515625 C 12.835938 -19.910156 13.03125 -24.113281 13.09375 -28.125 C 13.15625 -32.132812 13.1875 -36.53125 13.1875 -41.3125 L 13.1875 -53.53125 C 13.1875 -58.320312 13.15625 -62.71875 13.09375 -66.71875 C 13.03125 -70.726562 12.835938 -74.929688 12.515625 -79.328125 C 12.191406 -83.722656 11.640625 -88.894531 10.859375 -94.84375 L 50.046875 -94.84375 C 48.878906 -86.957031 48.234375 -80.039062 48.109375 -74.09375 C 52.242188 -80.945312 57.476562 -86.765625 63.8125 -91.546875 C 70.144531 -96.335938 78.421875 -98.734375 88.640625 -98.734375 C 98.722656 -98.734375 106.738281 -95.789062 112.6875 -89.90625 C 118.644531 -84.019531 121.625 -73.769531 121.625 -59.15625 L 121.625 -41.890625 C 121.625 -37.109375 121.65625 -32.742188 121.71875 -28.796875 C 121.78125 -24.859375 121.972656 -20.691406 122.296875 -16.296875 C 122.617188 -11.898438 123.171875 -6.46875 123.953125 0 Z M 84.578125 0 "/></g></g></g><g fill="#343434" fill-opacity="1"><g transform="translate(1350.529889, 193.76946)"><g><path d="M 29.671875 3.875 L 13.578125 -12.21875 L 29.671875 -28.3125 L 45.78125 -12.21875 Z M 29.671875 3.875 "/></g></g></g></svg>